<?xml version="1.0" encoding="UTF-8"?>
<svg xmlns="http://www.w3.org/2000/svg" width="1713" height="164" viewBox="0 0 1713 164" fill="none">
  <path d="M60.312 121.76V76.96H188.056C193.176 76.96 197.443 76.192 200.856 74.656C204.44 72.9493 206.232 69.4507 206.232 64.16C206.232 58.6987 204.44 55.2 200.856 53.664C197.443 52.128 193.176 51.36 188.056 51.36H64.408V164H0.408001V0.159988H178.072C190.872 0.159988 202.819 1.09866 213.912 2.976C225.176 4.68266 234.989 7.84 243.352 12.448C251.715 17.056 258.285 23.5413 263.064 31.904C267.843 40.2667 270.232 51.0187 270.232 64.16C270.232 77.3013 267.843 87.712 263.064 95.392C258.285 103.072 251.715 108.789 243.352 112.544C234.989 116.299 225.176 118.773 213.912 119.968C202.819 121.163 190.872 121.76 178.072 121.76H60.312ZM366.17 0.159988V115.36H515.418V164H302.17V0.159988H366.17ZM585.654 139.168V100.768H760.758V139.168H585.654ZM528.31 164L638.134 0.159988H709.302L820.15 164H749.75L654.774 17.312H692.918L598.71 164H528.31ZM1097.44 113.824L1073.63 127.392V0.159988H1137.63V164H1073.63L880.862 52.384L904.67 38.56V164H840.67V0.159988H904.67L1097.44 113.824ZM1163.18 0.159988H1429.42V48.8H1163.18V0.159988ZM1264.3 45.472H1328.3V164H1264.3V45.472ZM1712.14 0.159988L1608.46 122.272V164H1544.46V122.272L1440.78 0.159988H1516.3L1600.52 106.4H1553.16L1636.62 0.159988H1712.14Z" fill="#DC9F96"></path>
</svg>
